{
	"asset":{
		"copyright":"IN3DITO",
		"generator":"Khronos glTF Blender I/O v3.6.27",
		"version":"2.0"
	},
	"scene":0,
	"scenes":[
		{
			"name":"Scene",
			"nodes":[
				0,
				1
			]
		}
	],
	"nodes":[
		{
			"mesh":0,
			"name":"chain-box-parte1",
			"scale":[
				0.0009999871253967285,
				0.0009999871253967285,
				0.0009999871253967285
			],
			"translation":[
				0,
				0.004999999888241291,
				-0.04999999701976776
			]
		},
		{
			"mesh":1,
			"name":"chain-box-parte2",
			"rotation":[
				0,
				-0.05121798813343048,
				0,
				0.9986875057220459
			],
			"scale":[
				0.0009999871253967285,
				0.0009999871253967285,
				0.0009999871253967285
			],
			"translation":[
				0,
				0.019999999552965164,
				0.029999999329447746
			]
		}
	],
	"materials":[
		{
			"doubleSided":true,
			"name":"Material.012",
			"pbrMetallicRoughness":{
				"baseColorFactor":[
					0,
					0,
					0,
					1
				],
				"metallicFactor":0,
				"roughnessFactor":0.5
			}
		},
		{
			"doubleSided":true,
			"name":"Material.013",
			"pbrMetallicRoughness":{
				"baseColorFactor":[
					0.8000000715255737,
					0,
					0.0010909014381468296,
					1
				],
				"metallicFactor":0,
				"roughnessFactor":0.5
			}
		}
	],
	"meshes":[
		{
			"name":"chain-box-parte1.001",
			"primitives":[
				{
					"attributes":{
						"POSITION":0,
						"NORMAL":1
					},
					"indices":2,
					"material":0
				}
			]
		},
		{
			"name":"chain-box-parte2.001",
			"primitives":[
				{
					"attributes":{
						"POSITION":3,
						"NORMAL":4
					},
					"indices":5,
					"material":1
				}
			]
		}
	],
	"accessors":[
		{
			"bufferView":0,
			"componentType":5126,
			"count":41720,
			"max":[
				28.436054229736328,
				103.34150695800781,
				31.679302215576172
			],
			"min":[
				-65.77094268798828,
				-0.9384912252426147,
				-22.730697631835938
			],
			"type":"VEC3"
		},
		{
			"bufferView":1,
			"componentType":5126,
			"count":41720,
			"type":"VEC3"
		},
		{
			"bufferView":2,
			"componentType":5123,
			"count":75672,
			"type":"SCALAR"
		},
		{
			"bufferView":3,
			"componentType":5126,
			"count":376,
			"max":[
				78.99629974365234,
				20.807924270629883,
				23.161235809326172
			],
			"min":[
				-81.70369720458984,
				-18.31807518005371,
				-31.282764434814453
			],
			"type":"VEC3"
		},
		{
			"bufferView":4,
			"componentType":5126,
			"count":376,
			"type":"VEC3"
		},
		{
			"bufferView":5,
			"componentType":5123,
			"count":480,
			"type":"SCALAR"
		}
	],
	"bufferViews":[
		{
			"buffer":0,
			"byteLength":500640,
			"byteOffset":0,
			"target":34962
		},
		{
			"buffer":0,
			"byteLength":500640,
			"byteOffset":500640,
			"target":34962
		},
		{
			"buffer":0,
			"byteLength":151344,
			"byteOffset":1001280,
			"target":34963
		},
		{
			"buffer":0,
			"byteLength":4512,
			"byteOffset":1152624,
			"target":34962
		},
		{
			"buffer":0,
			"byteLength":4512,
			"byteOffset":1157136,
			"target":34962
		},
		{
			"buffer":0,
			"byteLength":960,
			"byteOffset":1161648,
			"target":34963
		}
	],
	"buffers":[
		{
			"byteLength":1162608,
			"uri":"data:application/octet-stream;base64,"
		}
	]
}
