{"asset":{"generator":"3D Builder","version":"2.0"},"scene":0,"scenes":[{"nodes":[0,1]}],"nodes":[{"mesh":0,"matrix":[1,0,0,0,0,-1.1920928955078125E-7,-0.99999988079071045,0,0,0.99999988079071045,-1.1920928955078125E-7,0,0,-0.048675999045372009,-2.5241355672278587E-9,1]},{"mesh":1,"matrix":[1,0,0,0,0,-1.1920928955078125E-7,-0.99999988079071045,0,0,0.99999988079071045,-1.1920928955078125E-7,0,0,-0.048675999045372009,-2.5241355672278587E-9,1]}],"meshes":[{"primitives":[{"attributes":{"POSITION":0},"mode":4,"indices":1,"material":0}]},{"primitives":[{"attributes":{"POSITION":2},"mode":4,"indices":3,"material":0}]}],"materials":[{"name":"PlasticoV1.018","pbrMetallicRoughness":{"baseColorFactor":[1,1,1,1],"metallicFactor":1,"roughnessFactor":1},"alphaMode":"OPAQUE"}],"accessors":[{"bufferView":0,"byteOffset":0,"count":9381,"componentType":5126,"type":"VEC3","min":[-0.062349949032068253,-0.012499995529651642,0.048676006495952606],"max":[0.062348067760467529,0.012499982491135597,0.053676001727581024]},{"bufferView":1,"byteOffset":0,"count":56298,"componentType":5125,"type":"SCALAR"},{"bufferView":2,"byteOffset":0,"count":13148,"componentType":5126,"type":"VEC3","min":[-0.090348444879055023,-0.022899987176060677,0.062242891639471054],"max":[0.090343967080116272,0.022899972274899483,0.096039280295372009]},{"bufferView":3,"byteOffset":0,"count":78876,"componentType":5125,"type":"SCALAR"}],"bufferViews":[{"buffer":0,"byteOffset":0,"byteLength":112572,"byteStride":12,"target":34962},{"buffer":0,"byteOffset":112572,"byteLength":225192,"target":34963},{"buffer":0,"byteOffset":337764,"byteLength":157776,"byteStride":12,"target":34962},{"buffer":0,"byteOffset":495540,"byteLength":315504,"target":34963}],"buffers":[{"byteLength":811044,"uri":"escenario-manija-heladera.bin"}]}