{"asset":{"generator":"3D Builder","version":"2.0"},"scene":0,"scenes":[{"nodes":[0,1]}],"nodes":[{"mesh":0,"matrix":[1,0,0,0,0,-1.1920928955078125E-7,-0.99999988079071045,0,0,0.99999988079071045,-1.1920928955078125E-7,0,0,-0.00277657900005579,-2.6969213529071112E-9,1]},{"mesh":1,"matrix":[1,0,0,0,0,-1.1920928955078125E-7,-0.99999988079071045,0,0,0.99999988079071045,-1.1920928955078125E-7,0,0,-0.00277657900005579,-2.6969213529071112E-9,1]}],"meshes":[{"primitives":[{"attributes":{"POSITION":0},"mode":4,"indices":1,"material":0}]},{"primitives":[{"attributes":{"POSITION":2},"mode":4,"indices":3,"material":0}]}],"materials":[{"name":"manija","pbrMetallicRoughness":{"baseColorFactor":[0.62580084800720215,0.62580084800720215,0.62580084800720215,1],"metallicFactor":0,"roughnessFactor":0.5},"alphaMode":"OPAQUE"}],"accessors":[{"bufferView":0,"byteOffset":0,"count":9463,"componentType":5126,"type":"VEC3","min":[-0.062349196523427963,-0.012499838136136532,0.0027765792328864336],"max":[0.062347311526536942,0.012499836273491383,0.00777651509270072]},{"bufferView":1,"byteOffset":0,"count":56790,"componentType":5125,"type":"SCALAR"},{"bufferView":2,"byteOffset":0,"count":13135,"componentType":5126,"type":"VEC3","min":[-0.090348832309246063,-0.022899704053997993,0.022939078509807587],"max":[0.090348832309246063,0.022899700328707695,0.05673506110906601]},{"bufferView":3,"byteOffset":0,"count":78798,"componentType":5125,"type":"SCALAR"}],"bufferViews":[{"buffer":0,"byteOffset":0,"byteLength":113556,"byteStride":12,"target":34962},{"buffer":0,"byteOffset":113556,"byteLength":227160,"target":34963},{"buffer":0,"byteOffset":340716,"byteLength":157620,"byteStride":12,"target":34962},{"buffer":0,"byteOffset":498336,"byteLength":315192,"target":34963}],"buffers":[{"byteLength":813528,"uri":"manija-heladera-comprimido.bin"}]}