{
	"asset":{
		"generator":"Khronos glTF Blender I/O v3.5.30",
		"version":"2.0"
	},
	"scene":0,
	"scenes":[
		{
			"name":"Scene",
			"nodes":[
				0,
				1,
				2
			]
		}
	],
	"nodes":[
		{
			"mesh":0,
			"name":"Trabajo Optica",
			"scale":[
				0.0010000000474974513,
				0.0010000000474974513,
				0.0010000000474974513
			]
		},
		{
			"mesh":1,
			"name":"Glasses-full-assembly",
			"rotation":[
				-0.005871092434972525,
				-0.5685586929321289,
				0.8226117491722107,
				0.004057984799146652
			],
			"scale":[
				0.0010000000474974513,
				0.0010000000474974513,
				0.0010000000474974513
			],
			"translation":[
				0.013925617560744286,
				0.1906355768442154,
				0.041003867983818054
			]
		},
		{
			"mesh":2,
			"name":"Trabajo Optica.001",
			"scale":[
				0.0010000000474974513,
				0.0010000000474974513,
				0.0010000000474974513
			]
		}
	],
	"materials":[
		{
			"doubleSided":true,
			"name":"Negro",
			"pbrMetallicRoughness":{
				"baseColorFactor":[
					0,
					0,
					0,
					1
				],
				"metallicFactor":0,
				"roughnessFactor":0.5
			}
		},
		{
			"doubleSided":true,
			"name":"Material.001",
			"pbrMetallicRoughness":{
				"baseColorFactor":[
					0.8000000715255737,
					0.2266482263803482,
					0.001921927323564887,
					1
				],
				"metallicFactor":0,
				"roughnessFactor":0.5
			}
		},
		{
			"doubleSided":true,
			"name":"Material.002",
			"pbrMetallicRoughness":{
				"baseColorFactor":[
					0.800000011920929,
					0.800000011920929,
					0.800000011920929,
					1
				],
				"metallicFactor":0,
				"roughnessFactor":0.5
			}
		}
	],
	"meshes":[
		{
			"name":"Trabajo Optica",
			"primitives":[
				{
					"attributes":{
						"POSITION":0,
						"NORMAL":1
					},
					"indices":2,
					"material":0
				}
			]
		},
		{
			"name":"Glasses-full-assembly",
			"primitives":[
				{
					"attributes":{
						"POSITION":3,
						"NORMAL":4
					},
					"indices":5,
					"material":1
				}
			]
		},
		{
			"name":"Trabajo Optica.001",
			"primitives":[
				{
					"attributes":{
						"POSITION":6,
						"NORMAL":7
					},
					"indices":8,
					"material":2
				}
			]
		}
	],
	"accessors":[
		{
			"bufferView":0,
			"componentType":5126,
			"count":64999,
			"max":[
				81.56700134277344,
				217.3780059814453,
				58.5
			],
			"min":[
				-74.10299682617188,
				0.10000000149011612,
				-91.13400268554688
			],
			"type":"VEC3"
		},
		{
			"bufferView":1,
			"componentType":5126,
			"count":64999,
			"type":"VEC3"
		},
		{
			"bufferView":2,
			"componentType":5123,
			"count":73122,
			"type":"SCALAR"
		},
		{
			"bufferView":3,
			"componentType":5126,
			"count":40382,
			"max":[
				117.65185546875,
				124.23799133300781,
				20.25364112854004
			],
			"min":[
				-107.8266830444336,
				-6.77073335647583,
				-19.580291748046875
			],
			"type":"VEC3"
		},
		{
			"bufferView":4,
			"componentType":5126,
			"count":40382,
			"type":"VEC3"
		},
		{
			"bufferView":5,
			"componentType":5123,
			"count":48708,
			"type":"SCALAR"
		},
		{
			"bufferView":6,
			"componentType":5126,
			"count":5993,
			"max":[
				36.13399887084961,
				24.551000595092773,
				56.29999923706055
			],
			"min":[
				-28.865999221801758,
				16.07699966430664,
				54.29999923706055
			],
			"type":"VEC3"
		},
		{
			"bufferView":7,
			"componentType":5126,
			"count":5993,
			"type":"VEC3"
		},
		{
			"bufferView":8,
			"componentType":5123,
			"count":10668,
			"type":"SCALAR"
		}
	],
	"bufferViews":[
		{
			"buffer":0,
			"byteLength":779988,
			"byteOffset":0,
			"target":34962
		},
		{
			"buffer":0,
			"byteLength":779988,
			"byteOffset":779988,
			"target":34962
		},
		{
			"buffer":0,
			"byteLength":146244,
			"byteOffset":1559976,
			"target":34963
		},
		{
			"buffer":0,
			"byteLength":484584,
			"byteOffset":1706220,
			"target":34962
		},
		{
			"buffer":0,
			"byteLength":484584,
			"byteOffset":2190804,
			"target":34962
		},
		{
			"buffer":0,
			"byteLength":97416,
			"byteOffset":2675388,
			"target":34963
		},
		{
			"buffer":0,
			"byteLength":71916,
			"byteOffset":2772804,
			"target":34962
		},
		{
			"buffer":0,
			"byteLength":71916,
			"byteOffset":2844720,
			"target":34962
		},
		{
			"buffer":0,
			"byteLength":21336,
			"byteOffset":2916636,
			"target":34963
		}
	],
	"buffers":[
		{
			"byteLength":2937972,
			"uri":"data:application/octet-stream;base64,"
		}
	]
}
