{
	"asset":{
		"generator":"Khronos glTF Blender I/O v3.6.27",
		"version":"2.0"
	},
	"scene":0,
	"scenes":[
		{
			"name":"Scene",
			"nodes":[
				0,
				1,
				2,
				3
			]
		}
	],
	"nodes":[
		{
			"mesh":0,
			"name":"Pentacubits",
			"rotation":[
				0.6275510191917419,
				-0.16580238938331604,
				0.13912472128868103,
				0.7478861808776855
			],
			"scale":[
				0.0009999871253967285,
				0.0009999871253967285,
				0.0009999871253967285
			],
			"translation":[
				0.034686848521232605,
				0.018800415098667145,
				0.007587346248328686
			]
		},
		{
			"mesh":1,
			"name":"Pentacubits (1)",
			"rotation":[
				0.5825634002685547,
				0.32374438643455505,
				-0.27165377140045166,
				0.6942720413208008
			],
			"scale":[
				0.0009999871253967285,
				0.0009999871253967285,
				0.0009999871253967285
			],
			"translation":[
				-0.050161927938461304,
				-0.0027152355760335922,
				-0.03574548661708832
			]
		},
		{
			"mesh":2,
			"name":"Pentacubits (2)",
			"rotation":[
				0.6275510191917419,
				-0.16580238938331604,
				0.13912472128868103,
				0.7478861808776855
			],
			"scale":[
				0.0009999871253967285,
				0.0009999871253967285,
				0.0009999871253967285
			],
			"translation":[
				0.025086358189582825,
				-0.008288959041237831,
				0.011715455912053585
			]
		},
		{
			"mesh":3,
			"name":"Pentacubits (3)",
			"scale":[
				0.0009999871253967285,
				0.0009999871253967285,
				0.0009999871253967285
			],
			"translation":[
				0.005819451063871384,
				-0.046791885048151016,
				0.0868273377418518
			]
		}
	],
	"materials":[
		{
			"doubleSided":true,
			"name":"celeste-plastic",
			"pbrMetallicRoughness":{
				"metallicFactor":0
			}
		},
		{
			"doubleSided":true,
			"name":"lavanda-plastic",
			"pbrMetallicRoughness":{
				"metallicFactor":0
			}
		}
	],
	"meshes":[
		{
			"name":"Pentacubits.004",
			"primitives":[
				{
					"attributes":{
						"POSITION":0,
						"NORMAL":1
					},
					"indices":2,
					"material":0
				}
			]
		},
		{
			"name":"Pentacubits (1)",
			"primitives":[
				{
					"attributes":{
						"POSITION":3,
						"NORMAL":4
					},
					"indices":5,
					"material":0
				}
			]
		},
		{
			"name":"Pentacubits (2)",
			"primitives":[
				{
					"attributes":{
						"POSITION":6,
						"NORMAL":7
					},
					"indices":8,
					"material":1
				}
			]
		},
		{
			"name":"Pentacubits (3)",
			"primitives":[
				{
					"attributes":{
						"POSITION":9,
						"NORMAL":10
					},
					"indices":11,
					"material":1
				}
			]
		}
	],
	"accessors":[
		{
			"bufferView":0,
			"componentType":5126,
			"count":41040,
			"max":[
				71.95806121826172,
				4.964696407318115,
				68.01840209960938
			],
			"min":[
				-74.27193450927734,
				-0.5353034138679504,
				-60.27959442138672
			],
			"type":"VEC3"
		},
		{
			"bufferView":1,
			"componentType":5126,
			"count":41040,
			"type":"VEC3"
		},
		{
			"bufferView":2,
			"componentType":5123,
			"count":79836,
			"type":"SCALAR"
		},
		{
			"bufferView":3,
			"componentType":5126,
			"count":480,
			"max":[
				75.49826049804688,
				2.750501871109009,
				47.696807861328125
			],
			"min":[
				-75.50173950195312,
				-3.749498128890991,
				-84.78719329833984
			],
			"type":"VEC3"
		},
		{
			"bufferView":4,
			"componentType":5126,
			"count":480,
			"type":"VEC3"
		},
		{
			"bufferView":5,
			"componentType":5123,
			"count":924,
			"type":"SCALAR"
		},
		{
			"bufferView":6,
			"componentType":5126,
			"count":5142,
			"max":[
				67.11453247070312,
				1.4894788265228271,
				35.47898864746094
			],
			"min":[
				-56.185462951660156,
				-1.5115211009979248,
				-58.93501281738281
			],
			"type":"VEC3"
		},
		{
			"bufferView":7,
			"componentType":5126,
			"count":5142,
			"type":"VEC3"
		},
		{
			"bufferView":8,
			"componentType":5123,
			"count":5931,
			"type":"SCALAR"
		},
		{
			"bufferView":9,
			"componentType":5126,
			"count":2346,
			"max":[
				52.1063346862793,
				1.5050837993621826,
				21.68291473388672
			],
			"min":[
				-52.50366973876953,
				-1.4959161281585693,
				-27.959083557128906
			],
			"type":"VEC3"
		},
		{
			"bufferView":10,
			"componentType":5126,
			"count":2346,
			"type":"VEC3"
		},
		{
			"bufferView":11,
			"componentType":5123,
			"count":2787,
			"type":"SCALAR"
		}
	],
	"bufferViews":[
		{
			"buffer":0,
			"byteLength":492480,
			"byteOffset":0,
			"target":34962
		},
		{
			"buffer":0,
			"byteLength":492480,
			"byteOffset":492480,
			"target":34962
		},
		{
			"buffer":0,
			"byteLength":159672,
			"byteOffset":984960,
			"target":34963
		},
		{
			"buffer":0,
			"byteLength":5760,
			"byteOffset":1144632,
			"target":34962
		},
		{
			"buffer":0,
			"byteLength":5760,
			"byteOffset":1150392,
			"target":34962
		},
		{
			"buffer":0,
			"byteLength":1848,
			"byteOffset":1156152,
			"target":34963
		},
		{
			"buffer":0,
			"byteLength":61704,
			"byteOffset":1158000,
			"target":34962
		},
		{
			"buffer":0,
			"byteLength":61704,
			"byteOffset":1219704,
			"target":34962
		},
		{
			"buffer":0,
			"byteLength":11862,
			"byteOffset":1281408,
			"target":34963
		},
		{
			"buffer":0,
			"byteLength":28152,
			"byteOffset":1293272,
			"target":34962
		},
		{
			"buffer":0,
			"byteLength":28152,
			"byteOffset":1321424,
			"target":34962
		},
		{
			"buffer":0,
			"byteLength":5574,
			"byteOffset":1349576,
			"target":34963
		}
	],
	"buffers":[
		{
			"byteLength":1355152,
			"uri":"data:application/octet-stream;base64,"
		}
	]
}
