{
	"asset":{
		"generator":"Khronos glTF Blender I/O v3.5.30",
		"version":"2.0"
	},
	"scene":0,
	"scenes":[
		{
			"name":"Scene",
			"nodes":[
				0,
				1,
				2
			]
		}
	],
	"nodes":[
		{
			"mesh":0,
			"name":"Glasses-full-assembly",
			"rotation":[
				-0.005753419827669859,
				-0.5970433950424194,
				0.8021770119667053,
				0.004282169044017792
			],
			"scale":[
				0.0010000000474974513,
				0.0010000000474974513,
				0.0010000000474974513
			],
			"translation":[
				0.014595645479857922,
				0.1875396966934204,
				0.04427099972963333
			]
		},
		{
			"mesh":1,
			"name":"Trabajo Optica",
			"scale":[
				0.0010000000474974513,
				0.0010000000474974513,
				0.0010000000474974513
			]
		},
		{
			"mesh":2,
			"name":"Trabajo Optica (1)",
			"scale":[
				0.0010000000474974513,
				0.0010000000474974513,
				0.0010000000474974513
			]
		}
	],
	"materials":[
		{
			"doubleSided":true,
			"name":"Naranja",
			"pbrMetallicRoughness":{
				"baseColorFactor":[
					0.8000000715255737,
					0.13423961400985718,
					0.009099836461246014,
					1
				],
				"metallicFactor":0,
				"roughnessFactor":0.5
			}
		},
		{
			"doubleSided":true,
			"name":"Material.001",
			"pbrMetallicRoughness":{
				"baseColorFactor":[
					0.7662912607192993,
					0.8000000715255737,
					0.7746391296386719,
					1
				],
				"metallicFactor":0,
				"roughnessFactor":0.5
			}
		},
		{
			"doubleSided":true,
			"name":"Negro",
			"pbrMetallicRoughness":{
				"baseColorFactor":[
					0,
					0,
					0,
					1
				],
				"metallicFactor":0,
				"roughnessFactor":0.5
			}
		}
	],
	"meshes":[
		{
			"name":"Glasses-full-assembly",
			"primitives":[
				{
					"attributes":{
						"POSITION":0,
						"NORMAL":1
					},
					"indices":2,
					"material":0
				}
			]
		},
		{
			"name":"Trabajo Optica",
			"primitives":[
				{
					"attributes":{
						"POSITION":3,
						"NORMAL":4
					},
					"indices":5,
					"material":1
				}
			]
		},
		{
			"name":"Trabajo Optica (1)",
			"primitives":[
				{
					"attributes":{
						"POSITION":6,
						"NORMAL":7
					},
					"indices":8,
					"material":2
				}
			]
		}
	],
	"accessors":[
		{
			"bufferView":0,
			"componentType":5126,
			"count":40382,
			"max":[
				117.65185546875,
				124.23799133300781,
				20.25364112854004
			],
			"min":[
				-107.8266830444336,
				-6.77073335647583,
				-19.580291748046875
			],
			"type":"VEC3"
		},
		{
			"bufferView":1,
			"componentType":5126,
			"count":40382,
			"type":"VEC3"
		},
		{
			"bufferView":2,
			"componentType":5123,
			"count":48708,
			"type":"SCALAR"
		},
		{
			"bufferView":3,
			"componentType":5126,
			"count":5993,
			"max":[
				36.13399887084961,
				24.551000595092773,
				56.29999923706055
			],
			"min":[
				-28.865999221801758,
				16.07699966430664,
				54.29999923706055
			],
			"type":"VEC3"
		},
		{
			"bufferView":4,
			"componentType":5126,
			"count":5993,
			"type":"VEC3"
		},
		{
			"bufferView":5,
			"componentType":5123,
			"count":10668,
			"type":"SCALAR"
		},
		{
			"bufferView":6,
			"componentType":5126,
			"count":58141,
			"max":[
				81.56700134277344,
				217.3780059814453,
				58.5
			],
			"min":[
				-74.10299682617188,
				0.10000000149011612,
				-91.13400268554688
			],
			"type":"VEC3"
		},
		{
			"bufferView":7,
			"componentType":5126,
			"count":58141,
			"type":"VEC3"
		},
		{
			"bufferView":8,
			"componentType":5123,
			"count":61008,
			"type":"SCALAR"
		}
	],
	"bufferViews":[
		{
			"buffer":0,
			"byteLength":484584,
			"byteOffset":0,
			"target":34962
		},
		{
			"buffer":0,
			"byteLength":484584,
			"byteOffset":484584,
			"target":34962
		},
		{
			"buffer":0,
			"byteLength":97416,
			"byteOffset":969168,
			"target":34963
		},
		{
			"buffer":0,
			"byteLength":71916,
			"byteOffset":1066584,
			"target":34962
		},
		{
			"buffer":0,
			"byteLength":71916,
			"byteOffset":1138500,
			"target":34962
		},
		{
			"buffer":0,
			"byteLength":21336,
			"byteOffset":1210416,
			"target":34963
		},
		{
			"buffer":0,
			"byteLength":697692,
			"byteOffset":1231752,
			"target":34962
		},
		{
			"buffer":0,
			"byteLength":697692,
			"byteOffset":1929444,
			"target":34962
		},
		{
			"buffer":0,
			"byteLength":122016,
			"byteOffset":2627136,
			"target":34963
		}
	],
	"buffers":[
		{
			"byteLength":2749152,
			"uri":"data:application/octet-stream;base64,"
		}
	]
}
